# xmcd
#
# Track frame offsets:
#	150
#	21652
#	48446
#	71740
#	98439
#	113260
#	137657
#	159432
#	177234
#	204272
#	231092
#	251324
#	282145
#
# Disc length: 4031 seconds
#
# Revision: 3
# Processed by: cddbd v1.5.2PL0 Copyright (c) Steve Scherf et al.
# Submitted via: audiograbber 1.83.01
#
DISCID=a40fbd0d
DTITLE=Maria Muldaur - Yes We Can!
DYEAR=2008
DGENRE=Blues
TTITLE0=Make A Better World
TTITLE1=Inner City Blues (Makes Me Wanna Holler)
TTITLE2=Yes We Can, Can (with Bonnie Raitt and Linda Tillery)
TTITLE3=John Brown
TTITLE4=This Old World (with Jenni Muldaur and Kimberly Bass)
TTITLE5=War
TTITLE6=We Shall Be Free (with Joan Baez and Odetta and Holly Near)
TTITLE7=License To Kill (with Jenni Muldaur)
TTITLE8=Masters Of War
TTITLE9=Why Can't We Live Together
TTITLE10=Pray For The USA (with Phoebe Snow)
TTITLE11=Down By The Riverside (with Jane Fonda and Odetta and Holly Near and others)
TTITLE12=Everyone In The World (Amma with Maria Muldaur and Joan Baez and Holly Nea
TTITLE12=r)
EXTD=
EXTT0=
EXTT1=
EXTT2=
EXTT3=
EXTT4=
EXTT5=
EXTT6=
EXTT7=
EXTT8=
EXTT9=
EXTT10=
EXTT11=
EXTT12=
PLAYORDER=
